<?xml version="1.0" encoding="UTF-8"?>
<!-- Generator: Adobe Illustrator 19.1.0, SVG Export Plug-In . SVG Version: 6.00 Build 0)  -->
<svg version="1.1" id="Layer_1" xmlns="http://www.w3.org/2000/svg" xmlns:xlink="http://www.w3.org/1999/xlink" x="0px" y="0px" viewBox="11 58.19921875 771.19921875 123.40234375" style="enable-background:new 0 0 792 234.5;" xml:space="preserve">
<style type="text/css">
	.st0{fill:#4A494A;}
</style>
<g>
	<path class="st0" d="M478.9,143.8v-53h13.5c17,0,27.9,10.4,27.9,26.5c0,16.1-11,26.5-27.9,26.5H478.9z M491.9,138.3   c14.1,0,22.3-7.7,22.3-21c0-13.4-8.1-21-22.3-21h-7.1v42.1H491.9z"/>
	<polygon class="st0" points="544.8,143.8 544.8,90.8 577.1,90.8 577.1,96.2 550.7,96.2 550.7,114.4 574.3,114.4 574.3,119.8    550.7,119.8 550.7,138.4 578.2,138.4 578.2,143.8  "/>
	<path class="st0" d="M625.9,144.4c-7.5,0-14.3-2.8-19.3-7.8c-5-5-7.7-11.9-7.6-19.3c0-15.5,11.5-27.1,26.8-27.1   c8.7,0,15.9,3.4,20.8,9.9l0.3,0.4l-4.6,3.3l-0.3-0.4c-4-5.2-9.5-7.8-16.3-7.8c-11.7,0-20.6,9.3-20.6,21.6c0,12.5,8.8,21.7,21,21.7   c7.2,0,13.2-2.9,17.3-8.5l0.3-0.4l4.7,3.3l-0.3,0.4C642.7,140.8,635.2,144.4,625.9,144.4z"/>
	<path class="st0" d="M694.1,144.4c-15.3,0-27.2-11.9-27.2-27.1c0-15.2,11.9-27.1,27.2-27.1c15.3,0,27.2,11.9,27.2,27.1   C721.3,132.5,709.3,144.4,694.1,144.4z M694.1,95.6c-12,0-21,9.3-21,21.6c0,12.3,9,21.7,21,21.7c12,0,21-9.3,21-21.7   C715.1,105,706.1,95.6,694.1,95.6z"/>
	<path class="st0" d="M775.5,143.8l-13.2-21.3h-10.9v21.3h-5.9v-53h16c10.9,0,17.9,6.3,17.9,16c0,7.2-4.1,12.7-11,14.8l13.8,22.2   H775.5z M761.2,117.2c7.8,0,12-3.6,12-10.4c0-6.9-4.3-10.6-12-10.6h-9.8v21H761.2z"/>
	<polygon class="st0" points="11,143.8 11,90.8 17,90.8 17,138.4 41.1,138.4 41.1,143.8  "/>
	<path class="st0" d="M85.4,144.4c-15.3,0-27.2-11.9-27.2-27.1c0-15.2,11.9-27.1,27.2-27.1c15.3,0,27.2,11.9,27.2,27.1   C112.6,132.5,100.7,144.4,85.4,144.4z M85.4,95.6c-12,0-21,9.3-21,21.6c0,12.3,9,21.7,21,21.7c12,0,21-9.3,21-21.7   C106.5,105,97.4,95.6,85.4,95.6z"/>
	<path class="st0" d="M160.6,144.4c-15.3,0-27.2-11.9-27.2-27.1c0-15.2,11.9-27.1,27.2-27.1c15.2,0,27.2,11.9,27.2,27.1   C187.8,132.5,175.9,144.4,160.6,144.4z M160.6,95.6c-12,0-21,9.3-21,21.6c0,12.3,9,21.7,21,21.7c12,0,21-9.3,21-21.7   C181.7,105,172.6,95.6,160.6,95.6z"/>
	<polygon class="st0" points="256.9,143.8 256.9,103.8 237.6,128 236.8,128 217.8,103.8 217.8,143.8 212.1,143.8 212.1,89.7    213.1,89.7 237.3,119.7 261.5,89.7 262.6,89.7 262.6,143.8  "/>
</g>
<path class="st0" d="M370.6,181.6c-28.7,0-59.7-20.7-59.7-54.1c0-17.7,10.8-35.6,31.4-35.6c13.9,0,22.4,5.2,29.8,9.8  c1.5,0.9,3,1.9,4.5,2.7c4.8-7.1,10.3-12.4,18.2-12.5c0.1,0,0.2,0,0.3,0c8.6,0,12.8,5.3,13,10.3c0.3,5.6-4,11.7-12.7,12.4  c-6.7,0.6-12.1-0.7-16.7-2.8l-7.3,12.7c-1.1,2-2.3,4-3.4,6c1.5,0.9,3,1.8,4.5,2.7c7.1,4.4,14.5,9,26.8,9c16.9,0,25.7-15,25.7-29.9  c0-28.9-27.9-48.4-54-48.4c-19.2,0-36.8,9.1-47.2,24.3c-0.9,1.3-2.7,1.6-4,0.8c-1.3-0.9-1.7-2.7-0.8-4  c11.4-16.8,30.8-26.8,51.9-26.8c28.7,0,59.8,20.7,59.8,54.1c0,17.7-10.8,35.6-31.4,35.6c-13.9,0-22.4-5.2-29.8-9.8  c-1.5-0.9-3-1.9-4.5-2.7c-4.8,7.1-10.3,12.4-18.2,12.5c-8.8,0.1-13.1-5.3-13.3-10.3c-0.3-5.6,4-11.7,12.7-12.4  c6.7-0.6,12.1,0.7,16.7,2.8l7.3-12.7c1.1-2,2.3-4,3.4-6c-1.5-0.9-3-1.8-4.5-2.7c-7.1-4.4-14.5-8.9-26.8-8.9  c-16.9,0-25.7,15-25.7,29.9c0,28.9,27.9,48.4,54,48.4c19.2,0,36.9-9.1,47.2-24.3c0.9-1.3,2.7-1.6,4-0.8c1.3,0.9,1.7,2.7,0.8,4  C411.1,171.6,391.7,181.6,370.6,181.6z M349.3,130.8c-0.9,0-1.8,0-2.7,0.1c-5.1,0.4-7.6,3.6-7.5,6.4c0.1,3,3.3,4.9,7.5,4.9  c5.2-0.1,9.3-3.9,13.1-9.4C356.6,131.6,353.3,130.8,349.3,130.8z M381.8,107c3.8,1.5,8,2.4,13.1,1.9c5.1-0.4,7.6-3.6,7.5-6.4  c-0.2-3-3-4.9-7.3-4.9c-0.1,0-0.1,0-0.2,0C389.7,97.7,385.6,101.5,381.8,107z"/>
<style xmlns="http://www.w3.org/1999/xhtml" charset="utf-8" type="text/css" class="firebugResetStyles">/* See license.txt for terms of usage */

/** reset styling **/

.firebugResetStyles {

    z-index: 2147483646 !important;

    top: 0 !important;

    left: 0 !important;

    display: block !important;

    border: 0 none !important;

    margin: 0 !important;

    padding: 0 !important;

    outline: 0 !important;

    min-width: 0 !important;

    max-width: none !important;

    min-height: 0 !important;

    max-height: none !important;

    position: fixed !important;

    transform: rotate(0deg) !important;

    transform-origin: 50% 50% !important;

    border-radius: 0 !important;

    box-shadow: none !important;

    background: transparent none !important;

    pointer-events: none !important;

    white-space: normal !important;

}

style.firebugResetStyles {

    display: none !important;

}



.firebugBlockBackgroundColor {

    background-color: transparent !important;

}



.firebugResetStyles:before, .firebugResetStyles:after {

    content: "" !important;

}

/**actual styling to be modified by firebug theme**/

.firebugCanvas {

    display: none !important;

}



/* * * * * * * * * * * * * * * * * * * * * * * * * * * * * * * * * * * * * * * * * * * * * * * * */

.firebugLayoutBox {

    width: auto !important;

    position: static !important;

}



.firebugLayoutBoxOffset {

    opacity: 0.8 !important;

    position: fixed !important;

}



.firebugLayoutLine {

    opacity: 0.4 !important;

    background-color: #000000 !important;

}



.firebugLayoutLineLeft, .firebugLayoutLineRight {

    width: 1px !important;

    height: 100% !important;

}



.firebugLayoutLineTop, .firebugLayoutLineBottom {

    width: 100% !important;

    height: 1px !important;

}



.firebugLayoutLineTop {

    margin-top: -1px !important;

    border-top: 1px solid #999999 !important;

}



.firebugLayoutLineRight {

    border-right: 1px solid #999999 !important;

}



.firebugLayoutLineBottom {

    border-bottom: 1px solid #999999 !important;

}



.firebugLayoutLineLeft {

    margin-left: -1px !important;

    border-left: 1px solid #999999 !important;

}



/* * * * * * * * * * * * * * * * * * * * * * * * * * * * * * * * * * * * * * * * * * * * * * * * */

.firebugLayoutBoxParent {

    border-top: 0 none !important;

    border-right: 1px dashed #E00 !important;

    border-bottom: 1px dashed #E00 !important;

    border-left: 0 none !important;

    position: fixed !important;

    width: auto !important;

}



.firebugRuler{

    position: absolute !important;

}



.firebugRulerH {

    top: -15px !important;

    left: 0 !important;

    width: 100% !important;

    height: 14px !important;

    background: url("data:image/png,%89PNG%0D%0A%1A%0A%00%00%00%0DIHDR%00%00%13%88%00%00%00%0E%08%02%00%00%00L%25a%0A%00%00%00%04gAMA%00%00%D6%D8%D4OX2%00%00%00%19tEXtSoftware%00Adobe%20ImageReadyq%C9e%3C%00%00%04%F8IDATx%DA%EC%DD%D1n%E2%3A%00E%D1%80%F8%FF%EF%E2%AF2%95%D0D4%0E%C1%14%B0%8Fa-%E9%3E%CC%9C%87n%B9%81%A6W0%1C%A6i%9A%E7y%0As8%1CT%A9R%A5J%95*U%AAT%A9R%A5J%95*U%AAT%A9R%A5J%95*U%AAT%A9R%A5J%95*U%AAT%A9R%A5J%95*U%AAT%A9R%A5J%95*U%AAT%A9R%A5J%95*U%AATE9%FE%FCw%3E%9F%AF%2B%2F%BA%97%FDT%1D~K(%5C%9D%D5%EA%1B%5C%86%B5%A9%BDU%B5y%80%ED%AB*%03%FAV9%AB%E1%CEj%E7%82%EF%FB%18%BC%AEJ8%AB%FA'%D2%BEU9%D7U%ECc0%E1%A2r%5DynwVi%CFW%7F%BB%17%7Dy%EACU%CD%0E%F0%FA%3BX%FEbV%FEM%9B%2B%AD%BE%AA%E5%95v%AB%AA%E3E5%DCu%15rV9%07%B5%7F%B5w%FCm%BA%BE%AA%FBY%3D%14%F0%EE%C7%60%0EU%AAT%A9R%A5J%95*U%AAT%A9R%A5J%95*U%AAT%A9R%A5J%95*U%AAT%A9R%A5J%95*U%AAT%A9R%A5JU%88%D3%F5%1F%AE%DF%3B%1B%F2%3E%DAUCNa%F92%D02%AC%7Dm%F9%3A%D4%F2%8B6%AE*%BF%5C%C2Ym~9g5%D0Y%95%17%7C%C8c%B0%7C%18%26%9CU%CD%13i%F7%AA%90%B3Z%7D%95%B4%C7%60%E6E%B5%BC%05%B4%FBY%95U%9E%DB%FD%1C%FC%E0%9F%83%7F%BE%17%7DkjMU%E3%03%AC%7CWj%DF%83%9An%BCG%AE%F1%95%96yQ%0Dq%5Dy%00%3Et%B5'%FC6%5DS%95pV%95%01%81%FF'%07%00%00%00%00%00%00%00%00%00%F8x%C7%F0%BE%9COp%5D%C9%7C%AD%E7%E6%EBV%FB%1E%E0(%07%E5%AC%C6%3A%ABi%9C%8F%C6%0E9%AB%C0'%D2%8E%9F%F99%D0E%B5%99%14%F5%0D%CD%7F%24%C6%DEH%B8%E9rV%DFs%DB%D0%F7%00k%FE%1D%84%84%83J%B8%E3%BA%FB%EF%20%84%1C%D7%AD%B0%8E%D7U%C8Y%05%1E%D4t%EF%AD%95Q%BF8w%BF%E9%0A%BF%EB%03%00%00%00%00%00%00%00%00%00%B8vJ%8E%BB%F5%B1u%8Cx%80%E1o%5E%CA9%AB%CB%CB%8E%03%DF%1D%B7T%25%9C%D5(%EFJM8%AB%CC'%D2%B2*%A4s%E7c6%FB%3E%FA%A2%1E%80~%0E%3E%DA%10x%5D%95Uig%15u%15%ED%7C%14%B6%87%A1%3B%FCo8%A8%D8o%D3%ADO%01%EDx%83%1A~%1B%9FpP%A3%DC%C6'%9C%95gK%00%00%00%00%00%00%00%00%00%20%D9%C9%11%D0%C0%40%AF%3F%EE%EE%92%94%D6%16X%B5%BCMH%15%2F%BF%D4%A7%C87%F1%8E%F2%81%AE%AAvzr%DA2%ABV%17%7C%E63%83%E7I%DC%C6%0Bs%1B%EF6%1E%00%00%00%00%00%00%00%00%00%80cr%9CW%FF%7F%C6%01%0E%F1%CE%A5%84%B3%CA%BC%E0%CB%AA%84%CE%F9%BF)%EC%13%08WU%AE%AB%B1%AE%2BO%EC%8E%CBYe%FE%8CN%ABr%5Dy%60~%CFA%0D%F4%AE%D4%BE%C75%CA%EDVB%EA(%B7%F1%09g%E5%D9%12%00%00%00%00%00%00%00%00%00H%F6%EB%13S%E7y%5E%5E%FB%98%F0%22%D1%B2'%A7%F0%92%B1%BC%24z3%AC%7Dm%60%D5%92%B4%7CEUO%5E%F0%AA*%3BU%B9%AE%3E%A0j%94%07%A0%C7%A0%AB%FD%B5%3F%A0%F7%03T%3Dy%D7%F7%D6%D4%C0%AAU%D2%E6%DFt%3F%A8%CC%AA%F2%86%B9%D7%F5%1F%18%E6%01%F8%CC%D5%9E%F0%F3z%88%AA%90%EF%20%00%00%00%00%00%00%00%00%00%C0%A6%D3%EA%CFi%AFb%2C%7BB%0A%2B%C3%1A%D7%06V%D5%07%A8r%5D%3D%D9%A6%CAu%F5%25%CF%A2%99%97zNX%60%95%AB%5DUZ%D5%FBR%03%AB%1C%D4k%9F%3F%BB%5C%FF%81a%AE%AB'%7F%F3%EA%FE%F3z%94%AA%D8%DF%5B%01%00%00%00%00%00%00%00%00%00%8E%FB%F3%F2%B1%1B%8DWU%AAT%A9R%A5J%95*U%AAT%A9R%A5J%95*U%AAT%A9R%A5J%95*U%AAT%A9R%A5J%95*U%AAT%A9R%A5J%95*U%AAT%A9R%A5J%95*U%AAT%A9R%A5J%95*UiU%C7%BBe%E7%F3%B9%CB%AAJ%95*U%AAT%A9R%A5J%95*U%AAT%A9R%A5J%95*U%AAT%A9R%A5J%95*U%AAT%A9R%A5J%95*U%AAT%A9R%A5J%95*U%AAT%A9R%A5J%95*U%AAT%A9R%A5*%AAj%FD%C6%D4%5Eo%90%B5Z%ADV%AB%D5j%B5Z%ADV%AB%D5j%B5Z%ADV%AB%D5j%B5Z%ADV%AB%D5j%B5Z%ADV%AB%D5j%B5Z%ADV%AB%D5j%B5Z%ADV%AB%D5j%B5%86%AF%1B%9F%98%DA%EBm%BBV%AB%D5j%B5Z%ADV%AB%D5j%B5Z%ADV%AB%D5j%B5Z%ADV%AB%D5j%B5Z%ADV%AB%D5j%B5Z%ADV%AB%D5j%B5Z%ADV%AB%D5j%B5Z%AD%D6%E4%F58%01%00%00%00%00%00%00%00%00%00%00%00%00%00%40%85%7F%02%0C%008%C2%D0H%16j%8FX%00%00%00%00IEND%AEB%60%82") repeat-x !important;

    border-top: 1px solid #BBBBBB !important;

    border-right: 1px dashed #BBBBBB !important;

    border-bottom: 1px solid #000000 !important;

}



.firebugRulerV {

    top: 0 !important;

    left: -15px !important;

    width: 14px !important;

    height: 100% !important;

    background: url("data:image/png,%89PNG%0D%0A%1A%0A%00%00%00%0DIHDR%00%00%00%0E%00%00%13%88%08%02%00%00%00%0E%F5%CB%10%00%00%00%04gAMA%00%00%D6%D8%D4OX2%00%00%00%19tEXtSoftware%00Adobe%20ImageReadyq%C9e%3C%00%00%06~IDATx%DA%EC%DD%D1v%A20%14%40Qt%F1%FF%FF%E4%97%D9%07%3BT%19%92%DC%40(%90%EEy%9A5%CB%B6%E8%F6%9Ac%A4%CC0%84%FF%DC%9E%CF%E7%E3%F1%88%DE4%F8%5D%C7%9F%2F%BA%DD%5E%7FI%7D%F18%DDn%BA%C5%FB%DF%97%BFk%F2%10%FF%FD%B4%F2M%A7%FB%FD%FD%B3%22%07p%8F%3F%AE%E3%F4S%8A%8F%40%EEq%9D%BE8D%F0%0EY%A1Uq%B7%EA%1F%81%88V%E8X%3F%B4%CEy%B7h%D1%A2E%EBohU%FC%D9%AF2fO%8BBeD%BE%F7X%0C%97%A4%D6b7%2Ck%A5%12%E3%9B%60v%B7r%C7%1AI%8C%BD%2B%23r%00c0%B2v%9B%AD%CA%26%0C%1Ek%05A%FD%93%D0%2B%A1u%8B%16-%95q%5Ce%DCSO%8E%E4M%23%8B%F7%C2%FE%40%BB%BD%8C%FC%8A%B5V%EBu%40%F9%3B%A72%FA%AE%8C%D4%01%CC%B5%DA%13%9CB%AB%E2I%18%24%B0n%A9%0CZ*Ce%9C%A22%8E%D8NJ%1E%EB%FF%8F%AE%CAP%19*%C3%BAEKe%AC%D1%AAX%8C*%DEH%8F%C5W%A1e%AD%D4%B7%5C%5B%19%C5%DB%0D%EF%9F%19%1D%7B%5E%86%BD%0C%95%A12%AC%5B*%83%96%CAP%19%F62T%86%CAP%19*%83%96%CA%B8Xe%BC%FE)T%19%A1%17xg%7F%DA%CBP%19*%C3%BA%A52T%86%CAP%19%F62T%86%CA%B0n%A9%0CZ%1DV%C6%3D%F3%FCH%DE%B4%B8~%7F%5CZc%F1%D6%1F%AF%84%F9%0F6%E6%EBVt9%0E~%BEr%AF%23%B0%97%A12T%86%CAP%19%B4T%86%CA%B8Re%D8%CBP%19*%C3%BA%A52huX%19%AE%CA%E5%BC%0C%7B%19*CeX%B7h%A9%0C%95%E1%BC%0C%7B%19*CeX%B7T%06%AD%CB%5E%95%2B%BF.%8F%C5%97%D5%E4%7B%EE%82%D6%FB%CF-%9C%FD%B9%CF%3By%7B%19%F62T%86%CA%B0n%D1R%19*%A3%D3%CA%B0%97%A12T%86uKe%D0%EA%B02*%3F1%99%5DB%2B%A4%B5%F8%3A%7C%BA%2B%8Co%7D%5C%EDe%A8%0C%95a%DDR%19%B4T%C66%82fA%B2%ED%DA%9FC%FC%17GZ%06%C9%E1%B3%E5%2C%1A%9FoiB%EB%96%CA%A0%D5qe4%7B%7D%FD%85%F7%5B%ED_%E0s%07%F0k%951%ECr%0D%B5C%D7-g%D1%A8%0C%EB%96%CA%A0%A52T%C6)*%C3%5E%86%CAP%19%D6-%95A%EB*%95q%F8%BB%E3%F9%AB%F6%E21%ACZ%B7%22%B7%9B%3F%02%85%CB%A2%5B%B7%BA%5E%B7%9C%97%E1%BC%0C%EB%16-%95%A12z%AC%0C%BFc%A22T%86uKe%D0%EA%B02V%DD%AD%8A%2B%8CWhe%5E%AF%CF%F5%3B%26%CE%CBh%5C%19%CE%CB%B0%F3%A4%095%A1%CAP%19*Ce%A8%0C%3BO*Ce%A8%0C%95%A12%3A%AD%8C%0A%82%7B%F0v%1F%2FD%A9%5B%9F%EE%EA%26%AF%03%CA%DF9%7B%19*Ce%A8%0C%95%A12T%86%CA%B8Ze%D8%CBP%19*Ce%A8%0C%95%D1ae%EC%F7%89I%E1%B4%D7M%D7P%8BjU%5C%BB%3E%F2%20%D8%CBP%19*Ce%A8%0C%95%A12T%C6%D5*%C3%5E%86%CAP%19*Ce%B4O%07%7B%F0W%7Bw%1C%7C%1A%8C%B3%3B%D1%EE%AA%5C%D6-%EBV%83%80%5E%D0%CA%10%5CU%2BD%E07YU%86%CAP%19*%E3%9A%95%91%D9%A0%C8%AD%5B%EDv%9E%82%FFKOee%E4%8FUe%A8%0C%95%A12T%C6%1F%A9%8C%C8%3D%5B%A5%15%FD%14%22r%E7B%9F%17l%F8%BF%ED%EAf%2B%7F%CF%ECe%D8%CBP%19*Ce%A8%0C%95%E1%93~%7B%19%F62T%86%CAP%19*Ce%A8%0C%E7%13%DA%CBP%19*Ce%A8%0CZf%8B%16-Z%B4h%D1R%19f%8B%16-Z%B4h%D1R%19%B4%CC%16-Z%B4h%D1R%19%B4%CC%16-Z%B4h%D1%A2%A52%CC%16-Z%B4h%D1%A2%A52h%99-Z%B4h%D1%A2%A52h%99-Z%B4h%D1%A2EKe%98-Z%B4h%D1%A2EKe%D02%5B%B4h%D1%A2EKe%D02%5B%B4h%D1%A2E%8B%96%CA0%5B%B4h%D1%A2E%8B%96%CA%A0e%B6h%D1%A2E%8B%96%CA%A0e%B6h%D1%A2E%8B%16-%95a%B6h%D1%A2E%8B%16-%95A%CBl%D1%A2E%8B%16-%95A%CBl%D1%A2E%8B%16-Z*%C3l%D1%A2E%8B%16-Z*%83%96%D9%A2E%8B%16-Z*%83%96%D9%A2E%8B%16-Z%B4T%86%D9%A2E%8B%16-Z%B4T%06-%B3E%8B%16-Z%B4T%06-%B3E%8B%16-Z%B4h%A9%0C%B3E%8B%16-Z%B4h%A9%0CZf%8B%16-Z%B4h%A9%0CZf%8B%16-Z%B4h%D1R%19f%8B%16-Z%B4h%D1R%19%B4%CC%16-Z%B4h%D1R%19%B4%CC%16-Z%B4h%D1%A2%A52%CC%16-Z%B4h%D1%A2%A52h%99-Z%B4h%D1%A2%A52h%99-Z%B4h%D1%A2EKe%98-Z%B4h%D1%A2EKe%D02%5B%B4h%D1%A2EKe%D02%5B%B4h%D1%A2E%8B%96%CA0%5B%B4h%D1%A2E%8B%96%CA%A0e%B6h%D1%A2E%8B%96%CA%A0e%B6h%D1%A2E%8B%16-%95a%B6h%D1%A2E%8B%16-%95A%CBl%D1%A2E%8B%16-%95A%CBl%D1%A2E%8B%16-Z*%C3l%D1%A2E%8B%16-Z*%83%96%D9%A2E%8B%16-Z*%83%96%D9%A2E%8B%16-Z%B4T%86%D9%A2E%8B%16-Z%B4T%06-%B3E%8B%16-Z%B4T%06-%B3E%8B%16-Z%B4h%A9%0C%B3E%8B%16-Z%B4h%A9%0CZf%8B%16-Z%B4h%A9%0CZf%8B%16-Z%B4h%D1R%19f%8B%16-Z%B4h%D1R%19%B4%CC%16-Z%B4h%D1R%19%B4%CC%16-Z%B4h%D1%A2%A52%CC%16-Z%B4h%D1%A2%A52h%99-Z%B4h%D1%A2%A52h%99-Z%B4h%D1%A2EKe%98-Z%B4h%D1%A2EKe%D02%5B%B4h%D1%A2EKe%D02%5B%B4h%D1%A2E%8B%96%CA0%5B%B4h%D1%A2E%8B%96%CA%A0e%B6h%D1%A2E%8B%96%CA%A0e%B6h%D1%A2E%8B%16-%95a%B6h%D1%A2E%8B%16-%95A%CBl%D1%A2E%8B%16-%95A%CBl%D1%A2E%8B%16-Z*%C3l%D1%A2E%8B%16-Z*%83%96%D9%A2E%8B%16-Z*%83%96%D9%A2E%8B%16-Z%B4T%86%D9%A2E%8B%16-Z%B4T%06-%B3E%8B%16-Z%B4%AE%A4%F5%25%C0%00%DE%BF%5C'%0F%DA%B8q%00%00%00%00IEND%AEB%60%82") repeat-y !important;

    border-left: 1px solid #BBBBBB !important;

    border-right: 1px solid #000000 !important;

    border-bottom: 1px dashed #BBBBBB !important;

}



.overflowRulerX &gt; .firebugRulerV {

    left: 0 !important;

}



.overflowRulerY &gt; .firebugRulerH {

    top: 0 !important;

}



/* * * * * * * * * * * * * * * * * * * * * * * * * * * * * * * * * * * * * * * * * * * * * * * * */

.fbProxyElement {

    position: fixed !important;

    pointer-events: auto !important;

}

</style></svg>